<svg width="24" height="24" viewBox="0 0 24 24" fill="none" xmlns="http://www.w3.org/2000/svg">
<path d="M19.279 12.4901L20.5305 13.6047C20.7616 13.7976 20.9161 14.0669 20.9658 14.3638C21.0156 14.6607 20.9575 14.9656 20.8019 15.2233L19.2928 17.8014C19.1757 17.9987 19.0086 18.1616 18.8082 18.2735C18.6056 18.3856 18.3781 18.4451 18.1465 18.4466C18.0028 18.4474 17.8599 18.426 17.7228 18.3829L16.121 17.854C15.8404 18.034 15.5488 18.195 15.246 18.3372L14.9096 19.9613C14.8473 20.26 14.681 20.527 14.4403 20.7145C14.1965 20.9054 13.8942 21.0061 13.5847 20.9997H10.4599C10.1504 21.0061 9.84811 20.9054 9.60431 20.7145C9.36408 20.5267 9.19826 20.2598 9.13637 19.9613L8.79856 18.3372C8.49979 18.1931 8.20991 18.0313 7.9305 17.8526L6.32313 18.3829C6.18607 18.426 6.04315 18.4474 5.89948 18.4466C5.66836 18.4449 5.44133 18.3854 5.23909 18.2735C5.03895 18.162 4.8718 17.9996 4.75453 17.8027L3.19147 15.2233C3.02897 14.9632 2.96688 14.6528 3.01684 14.3503C3.06679 14.0477 3.22536 13.7738 3.46282 13.5798L4.713 12V11.5099L3.46144 10.3953C3.23032 10.2024 3.07589 9.93314 3.02612 9.63624C2.97634 9.33935 3.03451 9.03444 3.19008 8.77672L4.75315 6.19865C4.87022 6.0013 5.03739 5.83842 5.23771 5.72651C5.43994 5.61459 5.66697 5.55509 5.8981 5.55344C6.04047 5.54445 6.18337 5.55753 6.32175 5.5922L7.89727 6.14603C8.17878 5.96604 8.47044 5.80497 8.77225 5.66282L9.11006 4.03872C9.17195 3.74016 9.33778 3.47325 9.57801 3.28551C9.82181 3.09464 10.1241 2.99388 10.4336 3.00029H13.532C13.8416 2.99388 14.1438 3.09464 14.3876 3.28551C14.6299 3.4752 14.7961 3.74242 14.8556 4.03872L15.1934 5.66282C15.4934 5.80589 15.7827 5.96742 16.0615 6.14742L17.6702 5.61851C17.8488 5.56042 18.0374 5.54003 18.2243 5.55862C18.4111 5.57721 18.592 5.63438 18.7556 5.72651C18.9564 5.84004 19.1225 6.00342 19.2402 6.19726L20.8019 8.77672C20.9666 9.03456 21.0318 9.34351 20.9854 9.64593C20.9391 9.94834 20.7843 10.2236 20.5499 10.4202L19.279 11.5029V12.4901Z" stroke="black" stroke-width="2"/>
<path d="M15 12C15 12.7956 14.6839 13.5587 14.1213 14.1213C13.5587 14.6839 12.7956 15 12 15C11.2044 15 10.4413 14.6839 9.87868 14.1213C9.31607 13.5587 9 12.7956 9 12C9 11.2044 9.31607 10.4413 9.87868 9.87868C10.4413 9.31607 11.2044 9 12 9C12.7956 9 13.5587 9.31607 14.1213 9.87868C14.6839 10.4413 15 11.2044 15 12Z" stroke="black" stroke-width="2"/>
</svg>
